/* XPM */
static char *e587de6eb2e244e2d7aeab84fd6b44031G7A5QRPIAaFPdpO[] = {
/* columns rows colors chars-per-pixel */
"6 6 3 1 ",
"  c black",
". c #ED1C24",
"X c #22B14C",
/* pixels */
".X    ",
"      ",
"      ",
"      ",
"      ",
"      "
};
