/* XPM */
static char *_e54c69aa29448228c086f823c821e69nE1sodl26giLJASf[] = {
/* columns rows colors chars-per-pixel */
"32 32 8 1 ",
"  c #282008",
". c #403018",
"X c #483818",
"o c #503818",
"O c #584020",
"+ c #684820",
"@ c #704828",
"# c #905830",
/* pixels */
"................................",
"################################",
"X+@@#oOXX@++X#o@@#oOXO#oXX@@@o #",
"XO@o#o@Xo@++X#o+@#o@O@#oXX@@@o #",
"+X@X#o@X++++X#o+@#o@@@#oXX@@+o #",
"@XoX#o@O@O++X#oO@#o@@@#oXX@@Oo #",
"+XX@#o@+@o++X#oX@#o+@@#oXX@@Xo #",
"O@o@#o@@@X++X#oX@#oO@+#oXX@@Xo #",
"X@Oo#o+@@X++X#oO+#oX+X#oXX@@Xo #",
"X+@X#oO@@X++X#o@O#oXXX#oXX@@Xo #",
"XO@X#oo@+X++X#o@X#oXXX#oXX@@Xo #",
"oooX#oX@OX++X#o+X#o+X+#oXX@+Xo #",
"oXXo#oXOoXO+X#oXX#o@+@#oXX@Ooo #",
"+XX+#oXXXXo+X#oXo#o@@@#oXX@oOo #",
"OXXo#oXXXOX+X#oXO#o+@@#oXX@o+o #",
"ooXX#oXXX+X+X#oX+#oO@+#oXX@X@o #",
"X++X#oOXX@X+X#oo@#oX@O#oXX@X@o #",
"XOOX#o@Xo@X+X#o+@#oX+X#oXX@X@o #",
"XXXX#o@OO@X+X#o@+#oXXX#oXX@X@o #",
"XXXo#o@@@+X+X#o@O#oXXX#oXX@X+o #",
"oXXO#o+@@OX+X#o@X#oOXX#oXX+XOo #",
"+XX+#oo@@XXOX#o+X#o@XO#oXXOooo #",
"+ooO#oX@@XOXX#oOX#o@O@#oXXoooo #",
"o++o#oXoOX+XX#oXo#o@@@#oXXoOXo #",
"X@@X#ooXXX@XX#oXO#o@@+#oXXX+Xo #",
"X+@X#oOXXX@XX#oX@#o+@O#oXXX@oo #",
"XO+X#o@XXo+XX#o+@#oO@o#oXXX@Oo #",
"XoOX#o+oX+OXX#o@@#oo@X#oXoXO+o #",
"XXoX#oO+X@XXX#o@@#oXOX#oXoXo@o #",
"oXXo#oX@@@XXX#o@+#oXXX#oX+XX@o #",
"OXX+#oXO@OX+X#o@O#oXXX#oX@XXOo #",
"+XX+#oXXOXX@O#o+X#oXXX#oO@XXXo #"
};
