/* XPM */
static char *_78497ec96b341c3de4c11d1bd693ae3DxjYIKhbSHEYHltP[] = {
/* columns rows colors chars-per-pixel */
"32 32 34 1 ",
"  c black",
". c #180000",
"X c #280000",
"o c #300000",
"O c #202020",
"+ c #282828",
"@ c gray22",
"# c #400000",
"$ c #480000",
"% c #500000",
"& c #600000",
"* c #680000",
"= c #700000",
"- c #484848",
"; c #505050",
": c #606060",
"> c gray44",
", c gray47",
"< c #800000",
"1 c #880000",
"2 c #980000",
"3 c #A00000",
"4 c #B00000",
"5 c #984800",
"6 c #C86000",
"7 c #F8A858",
"8 c #888888",
"9 c #989898",
"0 c gray66",
"q c gray69",
"w c #C0C0C0",
"e c #D0D0D0",
"r c #D8D8D8",
"t c gray91",
/* pixels */
"++++++++++++++++++++++++++++++++",
";;;;;-eeeeewe8@w88880@@888,:----",
"eeq7O-e000090;@w8008>@@rwwrrr7ee",
"q076550 55555555555555555 055678",
"90;6O-:31$o@--;;;;;;--@X&*;:;6;,",
">>;@O-r31=&2*313*<&#&<431*;,>:::",
"OOO++;r31=&2*313*<&#&<431*@@@@++",
"@@@@@;831=&2*313*<&#&<431*++@@@@",
"99999O-31=&2*313*<&#&<431*;,9999",
"0880>O-31=&2*313*<&#&<431*;,qqqq",
"0880;O;31=&2*313*<&#&<431*;,88,8",
"8,80;O;31=&2*313*<&#&<431*;,88,8",
"8088-Or31=&2*313*<&#&<431*;,8800",
":::-@Or31=&2*313*<&#&<431*@@---;",
"OOO---r31=&2*313*<&#&<431*O@@++O",
":qree>r31=&2*313*<&#&<431*;,:---",
":q000>t31=&2*313*<&#&<431*;,808@",
":000,;r31=&2*313*<&#&<431*;,880@",
":q088;w31=&2*313*<&#&<431*;,880@",
":q08,;931=&2*313*<&#&<431*OOOOOO",
":q099@;31=&1*313*<&#&<431*@;,,,@",
":q000O-31=&<*313*<&#&<431*;,re9+",
":q888O-31=&=*313*<&#&<431*;,88>+",
"-00;;+-31=&&%313*<&#&<431*;,88>+",
"-OO@@@-31=&%$313*<&#&<431*;,0,>O",
"----+@@31=&$#313*<&#&<431*;,88>O",
"-wrrw0>31=%#o313*<&#&<431*@@@@@+",
"-r0q8wr31=$o.313*<&#&<431*O+++@-",
"-e09880;;;;-@313*<&#&<431*O---;;",
"-8::::::::::::::;O-,,>:;:,8898rO",
"-OOOOOOOOOOOOOOOOO--;::-0909908O",
";;----@@@@@@@@@@@@@;;@@@;OOOOOOO"
};
