/* XPM */
static char *_7fe1fd7e8b446cae8047ddb8eae5067epF9S3Qrg456ZdrY[] = {
/* columns rows colors chars-per-pixel */
"32 32 14 1 ",
"  c #202020",
". c #000040",
"X c #000048",
"o c #000058",
"O c #000060",
"+ c #000070",
"@ c #000078",
"# c #000088",
"$ c #000098",
"% c #0000A0",
"& c #0000B0",
"* c #0000B8",
"= c #0000C8",
"- c #0000D0",
/* pixels */
".+++++++++++++.+++++++.+++++.+++",
".$@+$+###+@++o.$#@$@@X.&&&&&.%@@",
".@OO++@+@#+oXX.$@#++XX.&$&$@.@++",
".#%$$$$#@+++OX.$$@O@OX.%$&$+.#+X",
".##$##O@o+XOoX.$@O$++o.%%@$#....",
".+$@#$OXO+o+Oo.#+O@+XX.%&@@+.$#@",
".++@+++XXX.XOo.#@OoooX.%&#+OX###",
".........oXXXX.@@oXXXX.&&@@o....",
"$%%$$%$$...............%#++o.O**",
"&#@$+#+#.+##%$oOX.#+++.#%#+O.$--",
"$#&+#+X+.#@$X+Xo+.@+OO.&%O+o.%*$",
"%+##+o+X.%$#+ooO.......#$OOXX%%%",
"%#%##+XX.$+@XOOO.$&$#@.##+Oo.$**",
"$+$%#@Oo.@##@#@+.$$@$o.&&#OX.$*%",
"$@$$oXXX.+#$#$#X.$$$OO.$$#+X.@%*",
"##$+oX.o.+###%X+.$%@Oo.#$@OO.@*#",
"#$O+o+oX..XXXXXX.$$OOX.$%$++.@%@",
"+#++X.XX.oooOOoo.$@XoX.&$+#+.O%#",
"+o++X..X.o#@+@OO.$+OXX.$%#Oo.O%@",
"+#OOX..X.o++#@XO.$$@Oo.&$OXO.O##",
".............XOO.#+oXX.$++XX....",
".#%&&&&&&%$#+....#+oXX.+oXXX..XX",
".$%$%&#&&$%+o.#%.@@OXo..........",
".&%%%#&@$##OX.%$.......&&%$%%$&@",
" &#&@%%$*#OXX.#X.%%##O.&%$&+#+O+",
".**$&#+$O#+XX....*@+XX.&%-##+@#X",
".&*%%##+@@.XX.&=**$#@O.&$*$++#+X",
".&&%@@OooOX.X.#@$$#@oX.&$#@@#@oX",
".&&@%$#+O+oXo.$$@@$#+o.&&$OXOX.X",
".%@@oo#Oo+XOX.$++O++oX.%$&+oXX.X",
".$@oXXOOOXXXX.#+oOXXoX.$#@+oooXX",
".++++++++++++.++++++++.+++++++++"
};
